<?xml version="1.0" encoding="utf-8"?>
<!-- Generator: Adobe Illustrator 22.1.0, SVG Export Plug-In . SVG Version: 6.00 Build 0)  -->
<svg version="1.1" id="Layer_1" xmlns="http://www.w3.org/2000/svg" xmlns:xlink="http://www.w3.org/1999/xlink" x="0px" y="0px"
	 viewBox="0 0 853 200" style="enable-background:new 0 0 853 200;" xml:space="preserve">
<style type="text/css">
	.st0{clip-path:url(#SVGID_2_);fill:#00689C;}
	.st1{clip-path:url(#SVGID_4_);fill:#00689C;}
	.st2{clip-path:url(#SVGID_6_);fill:#00689C;}
	.st3{clip-path:url(#SVGID_8_);fill:#231F20;}
	.st4{fill:#231F20;}
	.st5{clip-path:url(#SVGID_10_);fill:#231F20;}
	.st6{clip-path:url(#SVGID_12_);fill:#231F20;}
	.st7{clip-path:url(#SVGID_14_);fill:#6D6E70;}
	.st8{fill:#6D6E70;}
	.st9{clip-path:url(#SVGID_16_);fill:#6D6E70;}
</style>
<g>
	<g>
		<g>
			<g>
				<defs>
					<rect id="SVGID_1_" y="15.2" width="839" height="170"/>
				</defs>
				<clipPath id="SVGID_2_">
					<use xlink:href="#SVGID_1_"  style="overflow:visible;"/>
				</clipPath>
				<path class="st0" d="M11.1,178C3.9,171.9,0,162.3,0,152V48.6c0-11.3,5.2-18.2,13.8-24.1c4.4-2.2,9.1-3,13.3-2.2
					c4.2,0.5,11.1,1.2,21.2,10.6c3.9,3.7,28.6,22.1,32.3,27.3c3.7,4.9,8.1,10.1,9.4,14.8c3.9,12.8-5.2,19.9-5.2,19.9L11.1,178z"/>
			</g>
		</g>
		<g>
			<g>
				<defs>
					<rect id="SVGID_3_" y="15.2" width="839" height="170"/>
				</defs>
				<clipPath id="SVGID_4_">
					<use xlink:href="#SVGID_3_"  style="overflow:visible;"/>
				</clipPath>
				<path class="st1" d="M36.7,15.1h108.2c18.5,0,30.6,14.5,30.6,33V152c0,18.7-14.5,33-33,33H53.2c17-20.7,54.9-70.6,60.6-77.7
					c6.2-7.9,19-0.7,19-0.7l26.4,18.2l15.8-21.2c0,0-6.6-4.4-14-10.6c-16-13.3-37.7-33.5-52.2-42.6C87.9,36.9,56.1,22.6,42.5,17.9
					c-1.5-0.7-3-1-4.4-1.5L36.7,15.1z"/>
			</g>
		</g>
		<g>
			<g>
				<defs>
					<rect id="SVGID_5_" y="15.2" width="839" height="170"/>
				</defs>
				<clipPath id="SVGID_6_">
					<use xlink:href="#SVGID_5_"  style="overflow:visible;"/>
				</clipPath>
				<path class="st2" d="M179.8,184.7c-0.8-0.3-1.4-0.8-2.1-1.4c-0.6-0.7-1.1-1.4-1.4-2.1c-0.3-0.8-0.5-1.6-0.5-2.5s0.2-1.7,0.5-2.5
					s0.8-1.5,1.4-2.1c0.6-0.7,1.3-1.1,2.1-1.4c0.8-0.3,1.6-0.5,2.5-0.5s1.7,0.2,2.4,0.5c0.8,0.3,1.5,0.8,2.1,1.4
					c0.6,0.6,1.1,1.3,1.4,2.1c0.3,0.8,0.5,1.6,0.5,2.5s-0.2,1.7-0.5,2.5s-0.8,1.5-1.4,2.1c-0.6,0.6-1.3,1.1-2.1,1.4
					c-0.8,0.3-1.6,0.5-2.4,0.5C181.3,185.2,180.5,185,179.8,184.7 M180.1,173.4c-0.7,0.3-1.3,0.7-1.8,1.2s-1,1.2-1.2,1.8
					c-0.3,0.7-0.4,1.4-0.4,2.2s0.1,1.5,0.4,2.2c0.3,0.7,0.7,1.3,1.2,1.8c0.5,0.6,1.1,1,1.8,1.3s1.4,0.4,2.2,0.4s1.5-0.1,2.2-0.4
					c0.7-0.3,1.3-0.7,1.8-1.3s0.9-1.2,1.2-1.8c0.3-0.7,0.4-1.4,0.4-2.2s-0.1-1.5-0.4-2.2c-0.3-0.7-0.7-1.3-1.2-1.8s-1.1-1-1.8-1.2
					c-0.7-0.3-1.4-0.4-2.2-0.4l0,0C181.4,172.9,180.7,173.1,180.1,173.4 M179.2,174.8h2.8c0.1,0,0.1,0,0.2,0.1h0.2h0.1h0.1h0.1h0.1
					c0.1,0,0.1,0,0.2,0c0,0,0.1,0,0.2,0h0.1c0.1,0,0.1,0,0.2,0c0.1,0,0.2,0.1,0.3,0.1s0.2,0.1,0.3,0.1c0.1,0.1,0.2,0.2,0.3,0.3
					s0.2,0.2,0.2,0.3c0.1,0.1,0.1,0.3,0.1,0.4c0,0.1,0,0.3,0,0.4c0,0.3-0.1,0.6-0.2,0.8c-0.1,0.2-0.2,0.4-0.5,0.5
					c-0.2,0.2-0.4,0.3-0.6,0.4c-0.2,0.1-0.5,0.1-0.7,0.2c0.1,0,0.3,0.1,0.4,0.2c0.1,0.1,0.2,0.2,0.3,0.3s0.2,0.2,0.3,0.4
					c0.1,0.1,0.2,0.3,0.2,0.4c0,0.1,0.1,0.1,0.1,0.2c0,0.1,0.1,0.1,0.1,0.2c0,0.1,0,0.1,0.1,0.2c0,0.1,0.1,0.1,0.1,0.2v0.1
					c0,0,0,0.1,0.1,0.1c0,0,0,0.1,0.1,0.1c0,0,0,0.1,0.1,0.1v0.1v0.1c0,0,0,0.1,0.1,0.1c0,0,0,0,0,0.1c0,0,0,0,0,0.1c0,0,0,0,0,0.1
					l0,0c0,0,0,0,0,0.1c0.1,0,0.1,0.1,0.1,0.1s0.1,0,0.2,0.1c0.1,0,0.1,0,0.2,0h0.2v0.3h-0.5l0,0l0,0l0,0l0,0h-0.1l0,0l0,0h-0.1l0,0
					l0,0c-0.1,0-0.1,0-0.2,0c-0.1,0-0.1,0-0.2,0c-0.1,0-0.1-0.1-0.2-0.1c0,0-0.1-0.1-0.2-0.1l-0.1-0.1c0-0.1-0.1-0.1-0.1-0.2
					c0-0.1-0.1-0.1-0.1-0.2c0-0.1-0.1-0.1-0.1-0.2c0-0.1,0-0.1-0.1-0.2c0-0.1,0-0.1-0.1-0.2c0-0.1,0-0.1,0-0.2c0,0,0-0.1-0.1-0.1
					v-0.1c0,0,0,0,0-0.1v-0.1c0,0,0,0,0-0.1s-0.1-0.1-0.1-0.2c0-0.1-0.1-0.1-0.1-0.2c0-0.1-0.1-0.1-0.1-0.2c0-0.1-0.1-0.1-0.1-0.2
					c0,0,0-0.1-0.1-0.1c0,0,0-0.1-0.1-0.1c0,0,0,0-0.1-0.1c0,0,0-0.1-0.1-0.1l-0.1-0.1c0,0-0.1-0.1-0.2-0.1c-0.1,0-0.1,0-0.2,0
					c-0.1,0-0.1,0-0.2,0l0,0l0,0l0,0l0,0l0,0l0,0l0,0l0,0l0,0l0,0l0,0l0,0h-0.3v2.3c0,0.1,0,0.2,0,0.3s0,0.2,0.1,0.2l0.1,0.1
					c0.1,0,0.2,0,0.3,0.1h0.4v0.3h-2.7v-0.3h0.3l0,0l0,0l0,0c0.1,0,0.2,0,0.2,0c0.1,0,0.1,0,0.2-0.1l0.1-0.1c0-0.1,0-0.2,0-0.3v-5.5
					c0-0.1,0-0.2,0-0.2c0-0.1,0-0.1-0.1-0.1c0,0-0.1,0-0.2-0.1c-0.1,0-0.1,0-0.2,0l0,0l0,0h-0.3v-0.5H179.2z M181.6,178.3
					c0.3,0,0.5,0,0.8,0c0.2-0.1,0.5-0.1,0.7-0.2c0.2-0.1,0.4-0.3,0.5-0.5s0.2-0.5,0.2-0.8s0-0.5-0.1-0.7s-0.2-0.4-0.3-0.5
					c-0.2-0.1-0.3-0.2-0.5-0.3s-0.4-0.1-0.7-0.1h-0.5c-0.1,0-0.2,0.1-0.3,0.1s-0.1,0.1-0.2,0.2c0,0.1,0,0.2,0,0.2c0,0.1,0,0.2,0,0.3
					l0,0l0,0v2.4L181.6,178.3L181.6,178.3z"/>
			</g>
		</g>
		<g>
			<g>
				<defs>
					<rect id="SVGID_7_" y="15.2" width="839" height="170"/>
				</defs>
				<clipPath id="SVGID_8_">
					<use xlink:href="#SVGID_7_"  style="overflow:visible;"/>
				</clipPath>
				<path class="st3" d="M276.8,53.4h-10.3v18.1h10.3c6.7,0,10.9-3.7,10.9-9.1C287.7,56.5,283.5,53.4,276.8,53.4 M276.6,79.5h-10
					v16.2h-8.8V45.3h19.8c11.7,0,19.1,6.6,19.1,16.9C296.7,73.6,287.6,79.5,276.6,79.5"/>
			</g>
		</g>
	</g>
	<path class="st4" d="M323.7,55.5L315,75.7h17.3L323.7,55.5z M350,95.7h-9.4l-5.1-12.2h-23.8l-5.2,12.2h-9.1L319.7,45h8.2L350,95.7z
		"/>
	<polygon class="st4" points="394.1,45.3 402.8,45.3 402.8,95.7 395.4,95.7 367.6,59.8 367.6,95.7 358.9,95.7 358.9,45.3 
		367.1,45.3 394.1,80.1 	"/>
	<path class="st4" d="M460.6,55.5L452,75.6h17.3L460.6,55.5z M486.9,95.7h-9.3l-5.1-12.2h-23.8l-5.2,12.2h-9.1L456.6,45h8.2
		L486.9,95.7z"/>
	<polygon class="st4" points="520.6,83.3 520.3,83.3 504.6,59.7 504.6,95.7 495.9,95.7 495.9,45.3 505.3,45.3 520.6,69.1 
		535.9,45.3 545.3,45.3 545.3,95.7 536.5,95.7 536.5,59.6 	"/>
	<polygon class="st4" points="596.7,53.2 568.3,53.2 568.3,66.3 593.5,66.3 593.5,74.2 568.3,74.2 568.3,87.7 597.1,87.7 
		597.1,95.7 559.4,95.7 559.4,45.3 596.7,45.3 	"/>
	<g>
		<g>
			<g>
				<defs>
					<rect id="SVGID_9_" y="15.2" width="839" height="170"/>
				</defs>
				<clipPath id="SVGID_10_">
					<use xlink:href="#SVGID_9_"  style="overflow:visible;"/>
				</clipPath>
				<path class="st5" d="M630.4,53.4h-12.9v16.9h12.9c6.3,0,10.4-3.3,10.4-8.5C640.8,56.3,636.9,53.4,630.4,53.4 M640.9,95.7
					l-12.4-17.5h-11.1v17.5h-8.8V45.3H631c11.6,0,18.7,6.1,18.7,16c0,8.3-5,13.4-12,15.3l13.6,19.1H640.9z"/>
			</g>
		</g>
	</g>
	<rect x="661.7" y="45.3" class="st4" width="8.8" height="50.3"/>
	<g>
		<g>
			<g>
				<defs>
					<rect id="SVGID_11_" y="15.2" width="839" height="170"/>
				</defs>
				<clipPath id="SVGID_12_">
					<use xlink:href="#SVGID_11_"  style="overflow:visible;"/>
				</clipPath>
				<path class="st6" d="M707.8,96.5c-14.7,0-25.6-11.4-25.6-26c0-14.4,10.7-26.1,26-26.1c9.3,0,14.9,3.2,19.7,7.8l-5.7,6.5
					c-4-3.7-8.3-6.3-14.1-6.3c-9.6,0-16.6,7.9-16.6,17.8s7,18,16.6,18c6.2,0,10.1-2.5,14.5-6.5l5.7,5.8
					C722.9,93.1,717.2,96.5,707.8,96.5"/>
			</g>
		</g>
	</g>
	<path class="st4" d="M759.8,55.5l-8.6,20.1h17.3L759.8,55.5z M786.2,95.7h-9.4l-5.1-12.2H748l-5.2,12.2h-9.1L755.9,45h8.2
		L786.2,95.7z"/>
	<polygon class="st4" points="830.3,45.3 830.3,80.1 803.3,45.3 795.1,45.3 795.1,95.7 803.8,95.7 803.8,59.8 831.6,95.7 839,95.7 
		839,45.3 	"/>
	<g>
		<g>
			<g>
				<defs>
					<rect id="SVGID_13_" y="15.2" width="839" height="170"/>
				</defs>
				<clipPath id="SVGID_14_">
					<use xlink:href="#SVGID_13_"  style="overflow:visible;"/>
				</clipPath>
				<path class="st7" d="M418.1,142c7.6,1.8,11.5,4.6,11.5,10.5c0,6.8-5.3,10.7-12.8,10.7c-5.5,0-10.6-1.9-14.9-5.7l3.8-4.5
					c3.4,3,6.9,4.7,11.3,4.7c3.9,0,6.3-1.8,6.3-4.6c0-2.6-1.4-4-8.1-5.5c-7.6-1.8-11.9-4.1-11.9-10.7c0-6.2,5.1-10.4,12.2-10.4
					c5.2,0,9.4,1.6,13,4.5l-3.4,4.8c-3.2-2.4-6.4-3.7-9.7-3.7c-3.7,0-5.8,1.9-5.8,4.3C409.6,139.1,411.2,140.4,418.1,142"/>
			</g>
		</g>
	</g>
	<rect x="460.5" y="127" class="st8" width="6.3" height="35.8"/>
	<polygon class="st8" points="499.5,127 505.8,127 505.8,157 524.6,157 524.6,162.8 499.5,162.8 	"/>
	<polygon class="st8" points="574.6,127 581.4,127 566.5,163 561,163 546.1,127 553.1,127 563.9,154.5 	"/>
	<polygon class="st8" points="636.9,132.6 616.7,132.6 616.7,141.9 634.6,141.9 634.6,147.5 616.7,147.5 616.7,157.1 637.2,157.1 
		637.2,162.8 610.4,162.8 610.4,127 636.9,127 	"/>
	<g>
		<g>
			<g>
				<defs>
					<rect id="SVGID_15_" y="15.2" width="839" height="170"/>
				</defs>
				<clipPath id="SVGID_16_">
					<use xlink:href="#SVGID_15_"  style="overflow:visible;"/>
				</clipPath>
				<path class="st9" d="M683.5,132.7h-9.2v12h9.2c4.5,0,7.4-2.4,7.4-6C690.9,134.7,688.1,132.7,683.5,132.7 M691,162.8l-8.8-12.5
					h-7.9v12.5H668V127h16c8.2,0,13.3,4.3,13.3,11.4c0,5.9-3.5,9.5-8.5,10.9l9.7,13.6L691,162.8L691,162.8z"/>
			</g>
		</g>
	</g>
	<rect x="260" y="142.9" class="st8" width="74.8" height="4.6"/>
	<rect x="762.5" y="142.9" class="st8" width="74.8" height="4.6"/>
</g>
</svg>
